<?xml version="1.0" encoding="UTF-8" standalone="no"?>
<!DOCTYPE svg PUBLIC "-//W3C//DTD SVG 1.1//EN" "http://www.w3.org/Graphics/SVG/1.1/DTD/svg11.dtd">
<svg width="100%" height="100%" viewBox="0 0 563 443" version="1.1" xmlns="http://www.w3.org/2000/svg" xmlns:xlink="http://www.w3.org/1999/xlink" xml:space="preserve" xmlns:serif="http://www.serif.com/" style="fill-rule:evenodd;clip-rule:evenodd;stroke-linecap:round;stroke-linejoin:round;stroke-miterlimit:1.5;">
    <g id="TOP">
        <g>
            <g transform="matrix(1,0,0,1,202.149,71.1357)">
                <circle cx="311.556" cy="51.21" r="5.758" style="fill:rgb(235,235,235);fill-opacity:0;stroke:rgb(255,0,0);stroke-width:0.27px;"/>
            </g>
            <g transform="matrix(1.18947,0,0,1.18947,-26.1493,-9.60782)">
                <circle cx="138.015" cy="122.611" r="12.71" style="fill:rgb(235,235,235);fill-opacity:0;stroke:rgb(255,0,0);stroke-width:0.22px;"/>
            </g>
            <g transform="matrix(1.18947,0,0,1.18947,237.677,102.025)">
                <circle cx="138.015" cy="122.611" r="12.71" style="fill:rgb(235,235,235);fill-opacity:0;stroke:rgb(255,0,0);stroke-width:0.22px;"/>
            </g>
            <g transform="matrix(1.18947,0,0,1.18947,328.722,102.025)">
                <circle cx="138.015" cy="122.611" r="12.71" style="fill:rgb(235,235,235);fill-opacity:0;stroke:rgb(255,0,0);stroke-width:0.22px;"/>
            </g>
            <g transform="matrix(1.0907,0,0,1.15783,-34.2727,-49.3127)">
                <path d="M410.787,282.177C410.787,281.966 410.605,281.794 410.381,281.794L345.354,281.794C345.13,281.794 344.948,281.966 344.948,282.177L344.948,343.434C344.948,343.645 345.13,343.816 345.354,343.816L410.381,343.816C410.605,343.816 410.787,343.645 410.787,343.434L410.787,282.177Z" style="fill:rgb(235,235,235);fill-opacity:0;stroke:rgb(255,0,0);stroke-width:0.24px;"/>
            </g>
            <g transform="matrix(1.0907,0,0,1.15783,-341.59,-227.088)">
                <path d="M410.787,282.177C410.787,281.966 410.605,281.794 410.381,281.794L345.354,281.794C345.13,281.794 344.948,281.966 344.948,282.177L344.948,343.434C344.948,343.645 345.13,343.816 345.354,343.816L410.381,343.816C410.605,343.816 410.787,343.645 410.787,343.434L410.787,282.177Z" style="fill:rgb(235,235,235);fill-opacity:0;stroke:rgb(255,0,0);stroke-width:0.24px;"/>
            </g>
            <g transform="matrix(1.0907,0,0,1.15783,54.9314,-49.3127)">
                <path d="M410.787,282.177C410.787,281.966 410.605,281.794 410.381,281.794L345.354,281.794C345.13,281.794 344.948,281.966 344.948,282.177L344.948,343.434C344.948,343.645 345.13,343.816 345.354,343.816L410.381,343.816C410.605,343.816 410.787,343.645 410.787,343.434L410.787,282.177Z" style="fill:rgb(235,235,235);fill-opacity:0;stroke:rgb(255,0,0);stroke-width:0.24px;"/>
            </g>
            <g transform="matrix(1.01895,0,0,1.07231,-2.20518,-15.6473)">
                <path d="M528.47,39.932C528.47,34.563 523.883,30.204 518.233,30.204L26.831,30.204C21.18,30.204 16.593,34.563 16.593,39.932L16.593,344.745C16.593,350.114 21.18,354.473 26.831,354.473L518.233,354.473C523.883,354.473 528.47,350.114 528.47,344.745L528.47,39.932Z" style="fill:none;stroke:rgb(255,0,0);stroke-width:0.25px;"/>
            </g>
            <g transform="matrix(1,0,0,1,202.149,290.348)">
                <circle cx="311.556" cy="51.21" r="5.758" style="fill:rgb(235,235,235);fill-opacity:0;stroke:rgb(255,0,0);stroke-width:0.27px;"/>
            </g>
            <g transform="matrix(1,0,0,1,-274.397,290.348)">
                <circle cx="311.556" cy="51.21" r="5.758" style="fill:rgb(235,235,235);fill-opacity:0;stroke:rgb(255,0,0);stroke-width:0.27px;"/>
            </g>
            <g transform="matrix(1,0,0,1,-274.49,-5.55214)">
                <circle cx="311.556" cy="51.21" r="5.758" style="fill:rgb(235,235,235);fill-opacity:0;stroke:rgb(255,0,0);stroke-width:0.27px;"/>
            </g>
            <g transform="matrix(1.00843,0,0,1,-2.03453,-1.1981)">
                <rect x="58.771" y="202.366" width="247.855" height="124.349" style="fill:none;stroke:rgb(255,0,0);stroke-width:0.27px;"/>
            </g>
        </g>
    </g>
</svg>
