<?xml version="1.0" encoding="UTF-8" standalone="no"?>
<!DOCTYPE svg PUBLIC "-//W3C//DTD SVG 1.1//EN" "http://www.w3.org/Graphics/SVG/1.1/DTD/svg11.dtd">
<svg width="100%" height="100%" viewBox="0 0 842 596" version="1.1" xmlns="http://www.w3.org/2000/svg" xmlns:xlink="http://www.w3.org/1999/xlink" xml:space="preserve" xmlns:serif="http://www.serif.com/" style="fill-rule:evenodd;clip-rule:evenodd;stroke-linecap:round;stroke-linejoin:round;">
    <g transform="matrix(1.00011,0,0,1.00047,-0.0329636,-0.0599015)">
        <path d="M530.248,188.549C529.074,188.549 528.011,189.025 527.241,189.794" style="fill-opacity:0;fill-rule:nonzero;stroke:black;stroke-width:0.57px;"/>
    </g>
    <g transform="matrix(1.00011,0,0,1.00047,-0.0329636,-0.0599015)">
        <path d="M455.773,323.853L387.152,323.853" style="fill:none;fill-rule:nonzero;stroke:black;stroke-width:0.14px;"/>
    </g>
    <g transform="matrix(1.00011,0,0,1.00047,-0.0329636,-0.0599015)">
        <path d="M516.506,138.298C517.275,137.529 517.751,136.465 517.751,135.291" style="fill-opacity:0;fill-rule:nonzero;stroke:black;stroke-width:0.57px;"/>
    </g>
    <g transform="matrix(1.00011,0,0,1.00047,-0.0329636,-0.0599015)">
        <path d="M384.318,321.019L384.318,315.182" style="fill:none;fill-rule:nonzero;stroke:black;stroke-width:0.14px;"/>
    </g>
    <g>
        <g transform="matrix(1.00011,0,0,1.00047,-0.0329636,-0.0599015)">
            <path d="M527.241,189.794C526.472,190.564 525.996,191.626 525.996,192.801" style="fill-opacity:0;fill-rule:nonzero;stroke:black;stroke-width:0.57px;"/>
        </g>
        <g transform="matrix(1.00011,0,0,1.00047,-0.0329636,-0.0599015)">
            <path d="M666.139,189.794C665.369,190.564 664.894,191.626 664.894,192.801" style="fill-opacity:0;fill-rule:nonzero;stroke:black;stroke-width:0.57px;"/>
        </g>
        <g transform="matrix(1.00011,0,0,1.00047,-0.0329636,-0.0599015)">
            <path d="M513.499,131.039C512.325,131.039 511.262,131.515 510.492,132.285" style="fill-opacity:0;fill-rule:nonzero;stroke:black;stroke-width:0.57px;"/>
        </g>
    </g>
    <g>
        <g transform="matrix(1.00011,0,0,1.00047,-0.0329636,-0.0599015)">
            <path d="M678.889,190.005C678.892,187.9 678.041,185.992 676.663,184.611" style="fill-opacity:0;fill-rule:nonzero;stroke:black;stroke-width:0.36px;"/>
        </g>
        <g transform="matrix(1.00011,0,0,1.00047,-0.0329636,-0.0599015)">
            <path d="M523.481,157.548L523.461,134.087" style="fill:none;fill-rule:nonzero;stroke:black;stroke-width:0.36px;"/>
        </g>
        <g transform="matrix(1.00011,0,0,1.00047,-0.0329636,-0.0599015)">
            <path d="M491.088,367.196L671.75,367.196" style="fill:none;fill-rule:nonzero;stroke:black;stroke-width:0.36px;"/>
        </g>
        <g transform="matrix(1.00011,0,0,1.00047,-0.0329636,-0.0599015)">
            <path d="M514.358,126.931L512.154,126.939" style="fill:none;fill-rule:nonzero;stroke:black;stroke-width:0.36px;"/>
        </g>
    </g>
    <g>
        <g transform="matrix(1.00011,0,0,1.00047,-0.0329636,-0.0599015)">
            <path d="M308.637,138.298C309.406,139.067 310.469,139.543 311.643,139.543" style="fill-opacity:0;fill-rule:nonzero;stroke:black;stroke-width:0.57px;"/>
        </g>
        <g transform="matrix(1.00011,0,0,1.00047,-0.0329636,-0.0599015)">
            <path d="M672.153,189.794C671.383,189.025 670.32,188.549 669.146,188.549" style="fill-opacity:0;fill-rule:nonzero;stroke:black;stroke-width:0.57px;"/>
        </g>
    </g>
    <g transform="matrix(1.00011,0,0,1.00047,-0.0329636,-0.0599015)">
        <path d="M676.663,184.611C675.285,183.229 673.38,182.372 671.275,182.369" style="fill-opacity:0;fill-rule:nonzero;stroke:black;stroke-width:0.36px;"/>
    </g>
    <g>
        <g transform="matrix(1.00011,0,0,1.00047,-0.0329636,-0.0599015)">
            <path d="M306.825,237.015C306.825,238.306 307.348,239.476 308.195,240.322" style="fill-opacity:0;fill-rule:nonzero;stroke:black;stroke-width:0.57px;"/>
        </g>
        <g transform="matrix(1.00011,0,0,1.00047,-0.0329636,-0.0599015)">
            <path d="M308.637,132.285C307.867,133.054 307.391,134.117 307.391,135.291" style="fill-opacity:0;fill-rule:nonzero;stroke:black;stroke-width:0.57px;"/>
        </g>
    </g>
    <g transform="matrix(1.00011,0,0,1.00047,-0.0329636,-0.0599015)">
        <path d="M458.608,315.182C458.608,315.182 458.608,315.182 458.608,315.182C458.608,313.627 457.328,312.347 455.773,312.347" style="fill-opacity:0;fill-rule:nonzero;stroke:black;stroke-width:0.14px;"/>
    </g>
    <g>
        <g transform="matrix(1.00011,0,0,1.00047,-0.0329636,-0.0599015)">
            <path d="M533.514,360.526C534.361,359.68 534.884,358.511 534.884,357.219" style="fill-opacity:0;fill-rule:nonzero;stroke:black;stroke-width:0.57px;"/>
        </g>
        <g transform="matrix(1.00011,0,0,1.00047,-0.0329636,-0.0599015)">
            <path d="M314.65,132.285C313.88,131.515 312.817,131.039 311.643,131.039" style="fill-opacity:0;fill-rule:nonzero;stroke:black;stroke-width:0.57px;"/>
        </g>
        <g transform="matrix(1.00011,0,0,1.00047,-0.0329636,-0.0599015)">
            <path d="M669.146,197.053C670.32,197.053 671.383,196.576 672.153,195.807" style="fill-opacity:0;fill-rule:nonzero;stroke:black;stroke-width:0.57px;"/>
        </g>
        <g transform="matrix(1.00011,0,0,1.00047,-0.0329636,-0.0599015)">
            <path d="M666.139,360.217C666.909,360.986 667.971,361.462 669.146,361.462" style="fill-opacity:0;fill-rule:nonzero;stroke:black;stroke-width:0.57px;"/>
        </g>
    </g>
    <g transform="matrix(1.00011,0,0,1.00047,-0.0329636,-0.0599015)">
        <path d="M523.461,134.087C523.46,132.132 522.667,130.363 521.385,129.082" style="fill-opacity:0;fill-rule:nonzero;stroke:black;stroke-width:0.36px;"/>
    </g>
    <g>
        <g transform="matrix(1.00011,0,0,1.00047,-0.0329636,-0.0599015)">
            <path d="M526.9,360.526C527.746,361.373 528.915,361.896 530.207,361.896" style="fill-opacity:0;fill-rule:nonzero;stroke:black;stroke-width:0.57px;"/>
        </g>
        <g transform="matrix(1.00011,0,0,1.00047,-0.0329636,-0.0599015)">
            <path d="M311.718,361.896C313.01,361.896 314.179,361.373 315.025,360.526" style="fill-opacity:0;fill-rule:nonzero;stroke:black;stroke-width:0.57px;"/>
        </g>
        <g transform="matrix(1.00011,0,0,1.00047,-0.0329636,-0.0599015)">
            <path d="M316.395,357.219C316.395,355.928 315.872,354.758 315.025,353.911" style="fill-opacity:0;fill-rule:nonzero;stroke:black;stroke-width:0.57px;"/>
        </g>
        <g transform="matrix(1.00011,0,0,1.00047,-0.0329636,-0.0599015)">
            <path d="M534.884,357.219C534.884,355.928 534.361,354.758 533.514,353.911" style="fill-opacity:0;fill-rule:nonzero;stroke:black;stroke-width:0.57px;"/>
        </g>
        <g transform="matrix(1.00011,0,0,1.00047,-0.0329636,-0.0599015)">
            <path d="M308.411,360.526C309.257,361.373 310.427,361.896 311.718,361.896" style="fill-opacity:0;fill-rule:nonzero;stroke:black;stroke-width:0.57px;"/>
        </g>
        <g transform="matrix(1.00011,0,0,1.00047,-0.0329636,-0.0599015)">
            <path d="M311.502,232.338C310.21,232.338 309.041,232.861 308.195,233.707" style="fill-opacity:0;fill-rule:nonzero;stroke:black;stroke-width:0.57px;"/>
        </g>
    </g>
    <g transform="matrix(1.00011,0,0,1.00047,-0.0329636,-0.0599015)">
        <path d="M310.425,367.196L491.088,367.196" style="fill:none;fill-rule:nonzero;stroke:black;stroke-width:0.36px;"/>
    </g>
    <g transform="matrix(1.00011,0,0,1.00047,-0.0329636,-0.0599015)">
        <path d="M526.9,353.911C526.053,354.758 525.53,355.928 525.53,357.219" style="fill-opacity:0;fill-rule:nonzero;stroke:black;stroke-width:0.57px;"/>
    </g>
    <g transform="matrix(1.00011,0,0,1.00047,-0.0329636,-0.0599015)">
        <path d="M516.358,126.947L514.358,126.931" style="fill:none;fill-rule:nonzero;stroke:black;stroke-width:0.36px;"/>
    </g>
    <g>
        <g transform="matrix(1.00011,0,0,1.00047,-0.0329636,-0.0599015)">
            <path d="M669.146,352.958C667.971,352.958 666.909,353.434 666.139,354.203" style="fill-opacity:0;fill-rule:nonzero;stroke:black;stroke-width:0.57px;"/>
        </g>
        <g transform="matrix(1.00011,0,0,1.00047,-0.0329636,-0.0599015)">
            <path d="M316.179,237.015C316.179,235.723 315.655,234.554 314.809,233.707" style="fill-opacity:0;fill-rule:nonzero;stroke:black;stroke-width:0.57px;"/>
        </g>
    </g>
    <g transform="matrix(1.00011,0,0,1.00047,-0.0329636,-0.0599015)">
        <path d="M512.154,126.939L310.431,126.973" style="fill:none;fill-rule:nonzero;stroke:black;stroke-width:0.36px;"/>
    </g>
    <g>
        <g transform="matrix(1.00011,0,0,1.00047,-0.0329636,-0.0599015)">
            <path d="M533.255,189.794C532.485,189.025 531.422,188.549 530.248,188.549" style="fill-opacity:0;fill-rule:nonzero;stroke:black;stroke-width:0.57px;"/>
        </g>
        <g transform="matrix(1.00011,0,0,1.00047,-0.0329636,-0.0599015)">
            <path d="M664.894,192.801C664.894,193.975 665.369,195.038 666.139,195.807" style="fill-opacity:0;fill-rule:nonzero;stroke:black;stroke-width:0.57px;"/>
        </g>
        <g transform="matrix(1.00011,0,0,1.00047,-0.0329636,-0.0599015)">
            <path d="M669.146,361.462C670.32,361.462 671.383,360.986 672.153,360.217" style="fill-opacity:0;fill-rule:nonzero;stroke:black;stroke-width:0.57px;"/>
        </g>
        <g transform="matrix(1.00011,0,0,1.00047,-0.0329636,-0.0599015)">
            <path d="M534.5,192.801C534.5,191.626 534.024,190.564 533.255,189.794" style="fill-opacity:0;fill-rule:nonzero;stroke:black;stroke-width:0.57px;"/>
        </g>
        <g transform="matrix(1.00011,0,0,1.00047,-0.0329636,-0.0599015)">
            <path d="M517.751,135.291C517.751,134.117 517.275,133.054 516.506,132.285" style="fill-opacity:0;fill-rule:nonzero;stroke:black;stroke-width:0.57px;"/>
        </g>
        <g transform="matrix(1.00011,0,0,1.00047,-0.0329636,-0.0599015)">
            <path d="M533.255,195.807C534.024,195.038 534.5,193.975 534.5,192.801" style="fill-opacity:0;fill-rule:nonzero;stroke:black;stroke-width:0.57px;"/>
        </g>
    </g>
    <g transform="matrix(1.00011,0,0,1.00047,-0.0329636,-0.0599015)">
        <path d="M523.5,181.008C523.5,181.406 523.661,181.765 523.922,182.026" style="fill-opacity:0;fill-rule:nonzero;stroke:black;stroke-width:0.36px;"/>
    </g>
    <g>
        <g transform="matrix(1.00011,0,0,1.00047,-0.0329636,-0.0599015)">
            <path d="M664.894,357.21C664.894,358.384 665.369,359.447 666.139,360.217" style="fill-opacity:0;fill-rule:nonzero;stroke:black;stroke-width:0.57px;"/>
        </g>
        <g transform="matrix(1.00011,0,0,1.00047,-0.0329636,-0.0599015)">
            <path d="M307.391,135.291C307.391,136.465 307.867,137.529 308.637,138.298" style="fill-opacity:0;fill-rule:nonzero;stroke:black;stroke-width:0.57px;"/>
        </g>
        <g transform="matrix(1.00011,0,0,1.00047,-0.0329636,-0.0599015)">
            <path d="M311.643,139.543C312.817,139.543 313.88,139.067 314.65,138.298" style="fill-opacity:0;fill-rule:nonzero;stroke:black;stroke-width:0.57px;"/>
        </g>
    </g>
    <g transform="matrix(1.00011,0,0,1.00047,-0.0329636,-0.0599015)">
        <path d="M676.452,364.812C677.697,363.567 678.555,361.937 678.837,360.11" style="fill-opacity:0;fill-rule:nonzero;stroke:black;stroke-width:0.36px;"/>
    </g>
    <g>
        <g transform="matrix(1.00011,0,0,1.00047,-0.0329636,-0.0599015)">
            <path d="M311.718,352.541C310.427,352.541 309.257,353.065 308.411,353.911" style="fill-opacity:0;fill-rule:nonzero;stroke:black;stroke-width:0.57px;"/>
        </g>
        <g transform="matrix(1.00011,0,0,1.00047,-0.0329636,-0.0599015)">
            <path d="M527.241,195.807C528.011,196.576 529.074,197.053 530.248,197.053" style="fill-opacity:0;fill-rule:nonzero;stroke:black;stroke-width:0.57px;"/>
        </g>
        <g transform="matrix(1.00011,0,0,1.00047,-0.0329636,-0.0599015)">
            <path d="M533.514,353.911C532.668,353.065 531.498,352.541 530.207,352.541" style="fill-opacity:0;fill-rule:nonzero;stroke:black;stroke-width:0.57px;"/>
        </g>
        <g transform="matrix(1.00011,0,0,1.00047,-0.0329636,-0.0599015)">
            <path d="M314.809,233.707C313.963,232.861 312.794,232.338 311.502,232.338" style="fill-opacity:0;fill-rule:nonzero;stroke:black;stroke-width:0.57px;"/>
        </g>
        <g transform="matrix(1.00011,0,0,1.00047,-0.0329636,-0.0599015)">
            <path d="M509.247,135.291C509.247,136.465 509.723,137.529 510.492,138.298" style="fill-opacity:0;fill-rule:nonzero;stroke:black;stroke-width:0.57px;"/>
        </g>
    </g>
    <g>
        <g transform="matrix(1.00011,0,0,1.00047,-0.0329636,-0.0599015)">
            <path d="M303.339,360.101C303.338,362.059 304.131,363.832 305.413,365.116" style="fill-opacity:0;fill-rule:nonzero;stroke:black;stroke-width:0.36px;"/>
        </g>
        <g transform="matrix(1.00011,0,0,1.00047,-0.0329636,-0.0599015)">
            <path d="M523.922,182.026C524.182,182.286 524.542,182.448 524.945,182.448" style="fill-opacity:0;fill-rule:nonzero;stroke:black;stroke-width:0.36px;"/>
        </g>
        <g transform="matrix(1.00011,0,0,1.00047,-0.0329636,-0.0599015)">
            <path d="M521.385,129.082C520.104,127.801 518.313,126.948 516.358,126.947" style="fill-opacity:0;fill-rule:nonzero;stroke:black;stroke-width:0.36px;"/>
        </g>
    </g>
    <g transform="matrix(1.00011,0,0,1.00047,-0.0329636,-0.0599015)">
        <path d="M315.025,353.911C314.179,353.065 313.01,352.541 311.718,352.541" style="fill-opacity:0;fill-rule:nonzero;stroke:black;stroke-width:0.57px;"/>
    </g>
    <g transform="matrix(1.00011,0,0,1.00047,-0.0329636,-0.0599015)">
        <path d="M387.152,312.347C385.597,312.347 384.318,313.627 384.318,315.182C384.318,315.182 384.318,315.182 384.318,315.182" style="fill-opacity:0;fill-rule:nonzero;stroke:black;stroke-width:0.14px;"/>
    </g>
    <g>
        <g transform="matrix(1.00011,0,0,1.00047,-0.0329636,-0.0599015)">
            <path d="M525.996,192.801C525.996,193.975 526.472,195.038 527.241,195.807" style="fill-opacity:0;fill-rule:nonzero;stroke:black;stroke-width:0.57px;"/>
        </g>
        <g transform="matrix(1.00011,0,0,1.00047,-0.0329636,-0.0599015)">
            <path d="M530.207,361.896C531.498,361.896 532.668,361.373 533.514,360.526" style="fill-opacity:0;fill-rule:nonzero;stroke:black;stroke-width:0.57px;"/>
        </g>
    </g>
    <g transform="matrix(1.00011,0,0,1.00047,-0.0329636,-0.0599015)">
        <path d="M455.773,323.853C457.328,323.853 458.608,322.574 458.608,321.019" style="fill-opacity:0;fill-rule:nonzero;stroke:black;stroke-width:0.14px;"/>
    </g>
    <g transform="matrix(1.00011,0,0,1.00047,-0.0329636,-0.0599015)">
        <path d="M678.837,360.11L678.889,190.005" style="fill:none;fill-rule:nonzero;stroke:black;stroke-width:0.36px;"/>
    </g>
    <g>
        <g transform="matrix(1.00011,0,0,1.00047,-0.0329636,-0.0599015)">
            <path d="M510.492,132.285C509.723,133.054 509.247,134.117 509.247,135.291" style="fill-opacity:0;fill-rule:nonzero;stroke:black;stroke-width:0.57px;"/>
        </g>
        <g transform="matrix(1.00011,0,0,1.00047,-0.0329636,-0.0599015)">
            <path d="M308.195,233.707C307.348,234.554 306.825,235.723 306.825,237.015" style="fill-opacity:0;fill-rule:nonzero;stroke:black;stroke-width:0.57px;"/>
        </g>
        <g transform="matrix(1.00011,0,0,1.00047,-0.0329636,-0.0599015)">
            <path d="M672.153,195.807C672.922,195.038 673.398,193.975 673.398,192.801" style="fill-opacity:0;fill-rule:nonzero;stroke:black;stroke-width:0.57px;"/>
        </g>
    </g>
    <g transform="matrix(1.00011,0,0,1.00047,-0.0329636,-0.0599015)">
        <path d="M671.75,367.196C673.577,366.913 675.208,366.056 676.452,364.812" style="fill-opacity:0;fill-rule:nonzero;stroke:black;stroke-width:0.36px;"/>
    </g>
    <g transform="matrix(1.00011,0,0,1.00047,-0.0329636,-0.0599015)">
        <path d="M525.53,357.219C525.53,358.511 526.053,359.68 526.9,360.526" style="fill-opacity:0;fill-rule:nonzero;stroke:black;stroke-width:0.57px;"/>
    </g>
    <g transform="matrix(1.00011,0,0,1.00047,-0.0329636,-0.0599015)">
        <path d="M384.318,321.019C384.318,322.574 385.597,323.853 387.152,323.853" style="fill-opacity:0;fill-rule:nonzero;stroke:black;stroke-width:0.14px;"/>
    </g>
    <g>
        <g transform="matrix(1.00011,0,0,1.00047,-0.0329636,-0.0599015)">
            <path d="M308.195,240.322C309.041,241.168 310.21,241.692 311.502,241.692" style="fill-opacity:0;fill-rule:nonzero;stroke:black;stroke-width:0.57px;"/>
        </g>
        <g transform="matrix(1.00011,0,0,1.00047,-0.0329636,-0.0599015)">
            <path d="M516.506,132.285C515.737,131.515 514.674,131.039 513.499,131.039" style="fill-opacity:0;fill-rule:nonzero;stroke:black;stroke-width:0.57px;"/>
        </g>
    </g>
    <g transform="matrix(1.00011,0,0,1.00047,-0.0329636,-0.0599015)">
        <path d="M458.608,315.182L458.608,321.019" style="fill:none;fill-rule:nonzero;stroke:black;stroke-width:0.14px;"/>
    </g>
    <g>
        <g transform="matrix(1.00011,0,0,1.00047,-0.0329636,-0.0599015)">
            <path d="M666.139,354.203C665.369,354.973 664.894,356.036 664.894,357.21" style="fill-opacity:0;fill-rule:nonzero;stroke:black;stroke-width:0.57px;"/>
        </g>
        <g transform="matrix(1.00011,0,0,1.00047,-0.0329636,-0.0599015)">
            <path d="M308.411,353.911C307.564,354.758 307.041,355.928 307.041,357.219" style="fill-opacity:0;fill-rule:nonzero;stroke:black;stroke-width:0.57px;"/>
        </g>
        <g transform="matrix(1.00011,0,0,1.00047,-0.0329636,-0.0599015)">
            <path d="M673.398,357.21C673.398,356.036 672.922,354.973 672.153,354.203" style="fill-opacity:0;fill-rule:nonzero;stroke:black;stroke-width:0.57px;"/>
        </g>
        <g transform="matrix(1.00011,0,0,1.00047,-0.0329636,-0.0599015)">
            <path d="M314.809,240.322C315.655,239.476 316.179,238.306 316.179,237.015" style="fill-opacity:0;fill-rule:nonzero;stroke:black;stroke-width:0.57px;"/>
        </g>
        <g transform="matrix(1.00011,0,0,1.00047,-0.0329636,-0.0599015)">
            <path d="M314.65,138.298C315.419,137.529 315.895,136.465 315.895,135.291" style="fill-opacity:0;fill-rule:nonzero;stroke:black;stroke-width:0.57px;"/>
        </g>
    </g>
    <g transform="matrix(1.00011,0,0,1.00047,-0.0329636,-0.0599015)">
        <path d="M671.275,182.369L524.945,182.448" style="fill:none;fill-rule:nonzero;stroke:black;stroke-width:0.36px;"/>
    </g>
    <g transform="matrix(1.00011,0,0,1.00047,-0.0329636,-0.0599015)">
        <path d="M311.502,241.692C312.794,241.692 313.963,241.168 314.809,240.322" style="fill-opacity:0;fill-rule:nonzero;stroke:black;stroke-width:0.57px;"/>
    </g>
    <g>
        <g transform="matrix(1.00011,0,0,1.00047,-0.0329636,-0.0599015)">
            <path d="M303.343,134.067L303.341,247.084" style="fill:none;fill-rule:nonzero;stroke:black;stroke-width:0.36px;"/>
        </g>
        <g transform="matrix(1.00011,0,0,1.00047,-0.0329636,-0.0599015)">
            <path d="M303.341,247.084L303.339,360.101" style="fill:none;fill-rule:nonzero;stroke:black;stroke-width:0.36px;"/>
        </g>
    </g>
    <g transform="matrix(1.00011,0,0,1.00047,-0.0329636,-0.0599015)">
        <path d="M513.499,139.543C514.674,139.543 515.737,139.067 516.506,138.298" style="fill-opacity:0;fill-rule:nonzero;stroke:black;stroke-width:0.57px;"/>
    </g>
    <g transform="matrix(1.00011,0,0,1.00047,-0.0329636,-0.0599015)">
        <path d="M305.424,129.036C304.141,130.315 303.346,132.082 303.343,134.067" style="fill-opacity:0;fill-rule:nonzero;stroke:black;stroke-width:0.36px;"/>
    </g>
    <g transform="matrix(1.00011,0,0,1.00047,-0.0329636,-0.0599015)">
        <path d="M387.152,312.347L455.773,312.347" style="fill:none;fill-rule:nonzero;stroke:black;stroke-width:0.14px;"/>
    </g>
    <g transform="matrix(1.00011,0,0,1.00047,-0.0329636,-0.0599015)">
        <path d="M673.398,192.801C673.398,191.626 672.922,190.564 672.153,189.794" style="fill-opacity:0;fill-rule:nonzero;stroke:black;stroke-width:0.57px;"/>
    </g>
    <g transform="matrix(1.00011,0,0,1.00047,-0.0329636,-0.0599015)">
        <path d="M305.413,365.116C306.696,366.4 308.468,367.195 310.425,367.196" style="fill-opacity:0;fill-rule:nonzero;stroke:black;stroke-width:0.36px;"/>
    </g>
    <g>
        <g transform="matrix(1.00011,0,0,1.00047,-0.0329636,-0.0599015)">
            <path d="M311.643,131.039C310.469,131.039 309.406,131.515 308.637,132.285" style="fill-opacity:0;fill-rule:nonzero;stroke:black;stroke-width:0.57px;"/>
        </g>
        <g transform="matrix(1.00011,0,0,1.00047,-0.0329636,-0.0599015)">
            <path d="M315.895,135.291C315.895,134.117 315.419,133.054 314.65,132.285" style="fill-opacity:0;fill-rule:nonzero;stroke:black;stroke-width:0.57px;"/>
        </g>
        <g transform="matrix(1.00011,0,0,1.00047,-0.0329636,-0.0599015)">
            <path d="M672.153,354.203C671.383,353.434 670.32,352.958 669.146,352.958" style="fill-opacity:0;fill-rule:nonzero;stroke:black;stroke-width:0.57px;"/>
        </g>
        <g transform="matrix(1.00011,0,0,1.00047,-0.0329636,-0.0599015)">
            <path d="M530.248,197.053C531.422,197.053 532.485,196.576 533.255,195.807" style="fill-opacity:0;fill-rule:nonzero;stroke:black;stroke-width:0.57px;"/>
        </g>
    </g>
    <g transform="matrix(1.00011,0,0,1.00047,-0.0329636,-0.0599015)">
        <path d="M523.5,181.008L523.481,157.548" style="fill:none;fill-rule:nonzero;stroke:black;stroke-width:0.36px;"/>
    </g>
    <g>
        <g transform="matrix(1.00011,0,0,1.00047,-0.0329636,-0.0599015)">
            <path d="M669.146,188.549C667.971,188.549 666.909,189.025 666.139,189.794" style="fill-opacity:0;fill-rule:nonzero;stroke:black;stroke-width:0.57px;"/>
        </g>
        <g transform="matrix(1.00011,0,0,1.00047,-0.0329636,-0.0599015)">
            <path d="M307.041,357.219C307.041,358.511 307.564,359.68 308.411,360.526" style="fill-opacity:0;fill-rule:nonzero;stroke:black;stroke-width:0.57px;"/>
        </g>
    </g>
    <g transform="matrix(1.00011,0,0,1.00047,-0.0329636,-0.0599015)">
        <path d="M310.431,126.973C308.477,126.97 306.707,127.758 305.424,129.036" style="fill-opacity:0;fill-rule:nonzero;stroke:black;stroke-width:0.36px;"/>
    </g>
    <g>
        <g transform="matrix(1.00011,0,0,1.00047,-0.0329636,-0.0599015)">
            <path d="M510.492,138.298C511.262,139.067 512.325,139.543 513.499,139.543" style="fill-opacity:0;fill-rule:nonzero;stroke:black;stroke-width:0.57px;"/>
        </g>
        <g transform="matrix(1.00011,0,0,1.00047,-0.0329636,-0.0599015)">
            <path d="M315.025,360.526C315.872,359.68 316.395,358.511 316.395,357.219" style="fill-opacity:0;fill-rule:nonzero;stroke:black;stroke-width:0.57px;"/>
        </g>
        <g transform="matrix(1.00011,0,0,1.00047,-0.0329636,-0.0599015)">
            <path d="M666.139,195.807C666.909,196.576 667.971,197.053 669.146,197.053" style="fill-opacity:0;fill-rule:nonzero;stroke:black;stroke-width:0.57px;"/>
        </g>
        <g transform="matrix(1.00011,0,0,1.00047,-0.0329636,-0.0599015)">
            <path d="M530.207,352.541C528.915,352.541 527.746,353.065 526.9,353.911" style="fill-opacity:0;fill-rule:nonzero;stroke:black;stroke-width:0.57px;"/>
        </g>
        <g transform="matrix(1.00011,0,0,1.00047,-0.0329636,-0.0599015)">
            <path d="M672.153,360.217C672.922,359.447 673.398,358.384 673.398,357.21" style="fill-opacity:0;fill-rule:nonzero;stroke:black;stroke-width:0.57px;"/>
        </g>
        <g transform="matrix(1.00011,0,0,1.00047,-4.3574,20.3707)">
            <g transform="matrix(12,0,0,12,583.36,381.305)">
            </g>
            <text x="380.62px" y="381.305px" style="font-family:'ArialMT', 'Arial', sans-serif;font-size:12px;">Dimensions are 132.5 mm x 84.8 mm</text>
        </g>
    </g>
</svg>
