<?xml version="1.0" encoding="utf-8"?>
<!-- Generator: Adobe Illustrator 15.1.0, SVG Export Plug-In . SVG Version: 6.00 Build 0)  -->
<!DOCTYPE svg PUBLIC "-//W3C//DTD SVG 1.1//EN" "http://www.w3.org/Graphics/SVG/1.1/DTD/svg11.dtd">
<svg version="1.1" id="Layer_1" xmlns:serif="http://www.serif.com/"
	 xmlns="http://www.w3.org/2000/svg" xmlns:xlink="http://www.w3.org/1999/xlink" x="0px" y="0px" width="792px" height="612px"
	 viewBox="0 0 792 612" enable-background="new 0 0 792 612" xml:space="preserve">
<g transform="matrix(1,0,0,1,202.149,71.1357)">
	
		<circle fill="#EBEBEB" fill-opacity="0" stroke="#FF0000" stroke-width="0.27" stroke-linecap="round" stroke-linejoin="round" stroke-miterlimit="1.5" cx="364.209" cy="140.985" r="4.319"/>
</g>
<g transform="matrix(1.18947,0,0,1.18947,-26.1493,-9.60782)">
	
		<circle fill="#EBEBEB" fill-opacity="0" stroke="#FF0000" stroke-width="0.22" stroke-linecap="round" stroke-linejoin="round" stroke-miterlimit="1.5" cx="261.243" cy="195.167" r="9.533"/>
</g>
<g transform="matrix(1.18947,0,0,1.18947,237.677,102.025)">
	
		<circle fill="#EBEBEB" fill-opacity="0" stroke="#FF0000" stroke-width="0.22" stroke-linecap="round" stroke-linejoin="round" stroke-miterlimit="1.5" cx="205.792" cy="171.703" r="9.532"/>
</g>
<g transform="matrix(1.18947,0,0,1.18947,328.722,102.025)">
	
		<circle fill="#EBEBEB" fill-opacity="0" stroke="#FF0000" stroke-width="0.22" stroke-linecap="round" stroke-linejoin="round" stroke-miterlimit="1.5" cx="186.656" cy="171.703" r="9.532"/>
</g>
<g transform="matrix(1.0907,0,0,1.15783,-34.2727,-49.3127)">
	
		<path fill="#EBEBEB" fill-opacity="0" stroke="#FF0000" stroke-width="0.24" stroke-linecap="round" stroke-linejoin="round" stroke-miterlimit="1.5" d="
		M481.967,326.234c0-0.158-0.137-0.287-0.304-0.287h-48.77c-0.168,0-0.305,0.129-0.305,0.287v45.942
		c0,0.159,0.137,0.287,0.305,0.287h48.77c0.167,0,0.304-0.128,0.304-0.287V326.234z"/>
</g>
<g transform="matrix(1.0907,0,0,1.15783,-341.59,-227.088)">
	
		<path fill="#EBEBEB" fill-opacity="0" stroke="#FF0000" stroke-width="0.24" stroke-linecap="round" stroke-linejoin="round" stroke-miterlimit="1.5" d="
		M552.409,364.62c0-0.158-0.137-0.287-0.305-0.287h-48.77c-0.168,0-0.304,0.129-0.304,0.287v45.943c0,0.159,0.137,0.287,0.304,0.287
		h48.77c0.168,0,0.305-0.128,0.305-0.287V364.62z"/>
</g>
<g transform="matrix(1.0907,0,0,1.15783,54.9314,-49.3127)">
	
		<path fill="#EBEBEB" fill-opacity="0" stroke="#FF0000" stroke-width="0.24" stroke-linecap="round" stroke-linejoin="round" stroke-miterlimit="1.5" d="
		M461.52,326.234c0-0.158-0.136-0.287-0.304-0.287h-48.771c-0.168,0-0.304,0.129-0.304,0.287v45.942
		c0,0.159,0.136,0.287,0.304,0.287h48.771c0.167,0,0.304-0.128,0.304-0.287V326.234z"/>
</g>
<g transform="matrix(1.01895,0,0,1.07231,-2.20518,-15.6473)">
	
		<path fill="none" stroke="#FF0000" stroke-width="0.25" stroke-linecap="round" stroke-linejoin="round" stroke-miterlimit="1.5" d="
		M574.605,145.842c0-4.027-3.441-7.296-7.678-7.296h-368.55c-4.239,0-7.679,3.269-7.679,7.296v228.609
		c0,4.026,3.44,7.296,7.679,7.296h368.55c4.237,0,7.678-3.269,7.678-7.296V145.842z"/>
</g>
<g transform="matrix(1,0,0,1,202.149,290.348)">
	
		<circle fill="#EBEBEB" fill-opacity="0" stroke="#FF0000" stroke-width="0.27" stroke-linecap="round" stroke-linejoin="round" stroke-miterlimit="1.5" cx="364.209" cy="86.181" r="4.318"/>
</g>
<g transform="matrix(1,0,0,1,-274.397,290.348)">
	
		<circle fill="#EBEBEB" fill-opacity="0" stroke="#FF0000" stroke-width="0.27" stroke-linecap="round" stroke-linejoin="round" stroke-miterlimit="1.5" cx="483.347" cy="86.181" r="4.318"/>
</g>
<g transform="matrix(1,0,0,1,-274.49,-5.55214)">
	
		<circle fill="#EBEBEB" fill-opacity="0" stroke="#FF0000" stroke-width="0.27" stroke-linecap="round" stroke-linejoin="round" stroke-miterlimit="1.5" cx="483.37" cy="160.157" r="4.318"/>
</g>
<g transform="matrix(1.00843,0,0,1,-2.03453,-1.1981)">
	
		<rect x="224.149" y="272.435" fill="none" stroke="#FF0000" stroke-width="0.27" stroke-linecap="round" stroke-linejoin="round" stroke-miterlimit="1.5" width="185.89" height="93.261"/>
</g>
<text transform="matrix(1 0 0 1 219.5 465.5001)" font-family="'Helvetica'" font-size="21">Dimensions are 138mm x 92mm</text>
</svg>
